<mxfile host="app.diagrams.net" modified="2021-01-20T19:30:51.105Z" agent="5.0 (Windows NT 10.0; Win64; x64) AppleWebKit/537.36 (KHTML, like Gecko) Chrome/87.0.4280.141 Safari/537.36 Edg/87.0.664.75" etag="bSCWcOG1m21poGdelQdZ" version="14.2.4" type="github">
  <diagram id="-BLOjNXXKDRfjwRwNKym" name="Page-1">
    <mxGraphModel dx="1122" dy="795" grid="1" gridSize="10" guides="1" tooltips="1" connect="1" arrows="1" fold="1" page="1" pageScale="1" pageWidth="850" pageHeight="1100" math="0" shadow="0">
      <root>
        <mxCell id="0" />
        <mxCell id="1" parent="0" />
        <mxCell id="aVUZ1tAFdGVrHFzcsm7A-56" value="" style="whiteSpace=wrap;html=1;aspect=fixed;fillColor=#e1d5e7;strokeColor=#9673a6;" vertex="1" parent="1">
          <mxGeometry x="97.5" y="200" width="160" height="160" as="geometry" />
        </mxCell>
        <mxCell id="aVUZ1tAFdGVrHFzcsm7A-4" value="US" style="rounded=0;whiteSpace=wrap;html=1;" vertex="1" parent="1">
          <mxGeometry x="110" y="140" width="140" height="60" as="geometry" />
        </mxCell>
        <mxCell id="aVUZ1tAFdGVrHFzcsm7A-5" value="EMEA" style="rounded=0;whiteSpace=wrap;html=1;" vertex="1" parent="1">
          <mxGeometry x="320" y="140" width="120" height="60" as="geometry" />
        </mxCell>
        <mxCell id="aVUZ1tAFdGVrHFzcsm7A-6" value="APAC" style="rounded=0;whiteSpace=wrap;html=1;" vertex="1" parent="1">
          <mxGeometry x="505" y="140" width="120" height="60" as="geometry" />
        </mxCell>
        <mxCell id="aVUZ1tAFdGVrHFzcsm7A-8" value="UAT" style="rounded=0;whiteSpace=wrap;html=1;rotation=-90;" vertex="1" parent="1">
          <mxGeometry x="117.5" y="250" width="120" height="30" as="geometry" />
        </mxCell>
        <mxCell id="aVUZ1tAFdGVrHFzcsm7A-9" value="DEV" style="rounded=0;whiteSpace=wrap;html=1;rotation=-90;" vertex="1" parent="1">
          <mxGeometry x="60" y="250" width="120" height="30" as="geometry" />
        </mxCell>
        <mxCell id="aVUZ1tAFdGVrHFzcsm7A-10" value="PROD" style="rounded=0;whiteSpace=wrap;html=1;rotation=-90;" vertex="1" parent="1">
          <mxGeometry x="180" y="250" width="120" height="30" as="geometry" />
        </mxCell>
        <mxCell id="aVUZ1tAFdGVrHFzcsm7A-11" value="UAT" style="rounded=0;whiteSpace=wrap;html=1;rotation=-90;" vertex="1" parent="1">
          <mxGeometry x="317.5" y="250" width="120" height="30" as="geometry" />
        </mxCell>
        <mxCell id="aVUZ1tAFdGVrHFzcsm7A-12" value="DEV" style="rounded=0;whiteSpace=wrap;html=1;rotation=-90;" vertex="1" parent="1">
          <mxGeometry x="282.5" y="250" width="120" height="30" as="geometry" />
        </mxCell>
        <mxCell id="aVUZ1tAFdGVrHFzcsm7A-13" value="PROD" style="rounded=0;whiteSpace=wrap;html=1;rotation=-90;" vertex="1" parent="1">
          <mxGeometry x="357.5" y="250" width="120" height="30" as="geometry" />
        </mxCell>
        <mxCell id="aVUZ1tAFdGVrHFzcsm7A-17" value="UAT" style="rounded=0;whiteSpace=wrap;html=1;rotation=-90;" vertex="1" parent="1">
          <mxGeometry x="502.5" y="250" width="120" height="30" as="geometry" />
        </mxCell>
        <mxCell id="aVUZ1tAFdGVrHFzcsm7A-18" value="DEV" style="rounded=0;whiteSpace=wrap;html=1;rotation=-90;" vertex="1" parent="1">
          <mxGeometry x="467.5" y="250" width="120" height="30" as="geometry" />
        </mxCell>
        <mxCell id="aVUZ1tAFdGVrHFzcsm7A-19" value="PROD" style="rounded=0;whiteSpace=wrap;html=1;rotation=-90;" vertex="1" parent="1">
          <mxGeometry x="542.5" y="250" width="120" height="30" as="geometry" />
        </mxCell>
        <mxCell id="aVUZ1tAFdGVrHFzcsm7A-26" value="EYGS.onmicrosoft.com" style="rounded=1;whiteSpace=wrap;html=1;" vertex="1" parent="1">
          <mxGeometry x="110" y="30" width="140" height="60" as="geometry" />
        </mxCell>
        <mxCell id="aVUZ1tAFdGVrHFzcsm7A-29" value="" style="edgeStyle=orthogonalEdgeStyle;rounded=0;orthogonalLoop=1;jettySize=auto;html=1;" edge="1" parent="1" source="aVUZ1tAFdGVrHFzcsm7A-28" target="aVUZ1tAFdGVrHFzcsm7A-26">
          <mxGeometry relative="1" as="geometry" />
        </mxCell>
        <mxCell id="aVUZ1tAFdGVrHFzcsm7A-28" value="EYGS" style="triangle;whiteSpace=wrap;html=1;" vertex="1" parent="1">
          <mxGeometry x="300" y="20" width="60" height="80" as="geometry" />
        </mxCell>
        <mxCell id="aVUZ1tAFdGVrHFzcsm7A-30" value="joe@ey.com" style="shape=umlActor;verticalLabelPosition=bottom;verticalAlign=top;html=1;outlineConnect=0;" vertex="1" parent="1">
          <mxGeometry x="372.5" y="30" width="30" height="60" as="geometry" />
        </mxCell>
        <mxCell id="aVUZ1tAFdGVrHFzcsm7A-35" value="EYUAT.onmicrosoft.com" style="rounded=1;whiteSpace=wrap;html=1;" vertex="1" parent="1">
          <mxGeometry x="110" y="520" width="140" height="60" as="geometry" />
        </mxCell>
        <mxCell id="aVUZ1tAFdGVrHFzcsm7A-36" value="" style="edgeStyle=orthogonalEdgeStyle;rounded=0;orthogonalLoop=1;jettySize=auto;html=1;" edge="1" parent="1" source="aVUZ1tAFdGVrHFzcsm7A-37" target="aVUZ1tAFdGVrHFzcsm7A-35">
          <mxGeometry relative="1" as="geometry" />
        </mxCell>
        <mxCell id="aVUZ1tAFdGVrHFzcsm7A-37" value="EYUAT" style="triangle;whiteSpace=wrap;html=1;" vertex="1" parent="1">
          <mxGeometry x="300" y="510" width="60" height="80" as="geometry" />
        </mxCell>
        <mxCell id="aVUZ1tAFdGVrHFzcsm7A-38" value="jill@eyua.net" style="shape=umlActor;verticalLabelPosition=bottom;verticalAlign=top;html=1;outlineConnect=0;" vertex="1" parent="1">
          <mxGeometry x="372.5" y="520" width="30" height="60" as="geometry" />
        </mxCell>
        <mxCell id="aVUZ1tAFdGVrHFzcsm7A-51" value="US Geo&lt;br&gt;https://eyuat.sharepoint.com/sites/ews" style="rounded=0;whiteSpace=wrap;html=1;" vertex="1" parent="1">
          <mxGeometry x="107.5" y="630" width="140" height="60" as="geometry" />
        </mxCell>
        <mxCell id="aVUZ1tAFdGVrHFzcsm7A-52" value="UAT" style="rounded=0;whiteSpace=wrap;html=1;rotation=-90;" vertex="1" parent="1">
          <mxGeometry x="115" y="740" width="120" height="30" as="geometry" />
        </mxCell>
        <mxCell id="aVUZ1tAFdGVrHFzcsm7A-53" value="DEV" style="rounded=0;whiteSpace=wrap;html=1;rotation=-90;" vertex="1" parent="1">
          <mxGeometry x="57.5" y="740" width="120" height="30" as="geometry" />
        </mxCell>
        <mxCell id="aVUZ1tAFdGVrHFzcsm7A-54" value="PROD" style="rounded=0;whiteSpace=wrap;html=1;rotation=-90;" vertex="1" parent="1">
          <mxGeometry x="177.5" y="740" width="120" height="30" as="geometry" />
        </mxCell>
        <mxCell id="aVUZ1tAFdGVrHFzcsm7A-55" value="Power platform Prod US region" style="whiteSpace=wrap;html=1;aspect=fixed;" vertex="1" parent="1">
          <mxGeometry x="150" y="330" width="60" height="60" as="geometry" />
        </mxCell>
        <mxCell id="aVUZ1tAFdGVrHFzcsm7A-58" value="" style="whiteSpace=wrap;html=1;aspect=fixed;fillColor=#d5e8d4;strokeColor=#82b366;" vertex="1" parent="1">
          <mxGeometry x="110" y="210" width="20" height="20" as="geometry" />
        </mxCell>
        <mxCell id="aVUZ1tAFdGVrHFzcsm7A-59" value="" style="whiteSpace=wrap;html=1;aspect=fixed;fillColor=#d5e8d4;strokeColor=#82b366;" vertex="1" parent="1">
          <mxGeometry x="167.5" y="210" width="20" height="20" as="geometry" />
        </mxCell>
        <mxCell id="aVUZ1tAFdGVrHFzcsm7A-61" value="" style="whiteSpace=wrap;html=1;aspect=fixed;fillColor=#d5e8d4;strokeColor=#82b366;" vertex="1" parent="1">
          <mxGeometry x="230" y="210" width="20" height="20" as="geometry" />
        </mxCell>
      </root>
    </mxGraphModel>
  </diagram>
</mxfile>
